# xmcd
#
# Track frame offsets:
#	150
#	30864
#	53438
#	72042
#	95487
#	111221
#	137006
#	168407
#	192970
#	211122
#	238409
#	263998
#	292762
#	312299
#	335936
#
# Disc length: 4761 seconds
#
# Revision: 0
# Processed by: cddbd v1.5.2PL0 Copyright (c) Steve Scherf et al.
# Submitted via: EasyCDDAExtractor 8.2.3.1
#
DISCID=d412970f
DTITLE=Various Artist - Blues Instrumental  CD-1
DYEAR=2000
DGENRE=Blues
TTITLE0=STEVIE RAY VAUGHAN - Little Wing
TTITLE1=DAVE MENIKETTI - Until the Next Time
TTITLE2=CHRIS DUARTE - C-Butt Rock
TTITLE3=ROBBEN FORD - Oasis
TTITLE4=B.B.KING - Blues Boy's Tune
TTITLE5=WALTER TROUT - Marie's Mood
TTITLE6=BUDDY GUY - Remembering Stevie
TTITLE7=TINO GONZALES - Weeping for Nicki
TTITLE8=SMOKIN' JOE KUBEK - Spanish Trace
TTITLE9=JAMES SOLBERG - Happy Snails
TTITLE10=MICHAEL OSBORN - Midnight Crawl
TTITLE11=STANLEY JORDAN - Riviera Paradise
TTITLE12=COLIN JAMES - Speechless
TTITLE13=LUCKY PETERSON - Pickin'
TTITLE14=MELVIN TAYLOR - Comin' Home Baby
EXTD=
EXTT0=
EXTT1=
EXTT2=
EXTT3=
EXTT4=
EXTT5=
EXTT6=
EXTT7=
EXTT8=
EXTT9=
EXTT10=
EXTT11=
EXTT12=
EXTT13=
EXTT14=
PLAYORDER=
